Results
version=1
nRows=4
nColumns=143
inDegrees=yes
endheader
time	/jointset/groundthorax/r_z/value	/jointset/groundthorax/r_z/speed	/jointset/sternoclavicular/sternoclavicular_r2/value	/jointset/sternoclavicular/sternoclavicular_r2/speed	/jointset/sternoclavicular/sternoclavicular_r3/value	/jointset/sternoclavicular/sternoclavicular_r3/speed	/jointset/unrotscap/unrotscap_r3/value	/jointset/unrotscap/unrotscap_r3/speed	/jointset/unrotscap/unrotscap_r2/value	/jointset/unrotscap/unrotscap_r2/speed	/jointset/acromioclavicular/acromioclavicular_r2/value	/jointset/acromioclavicular/acromioclavicular_r2/speed	/jointset/acromioclavicular/acromioclavicular_r3/value	/jointset/acromioclavicular/acromioclavicular_r3/speed	/jointset/acromioclavicular/acromioclavicular_r1/value	/jointset/acromioclavicular/acromioclavicular_r1/speed	/jointset/unrothum/unrothum_r1/value	/jointset/unrothum/unrothum_r1/speed	/jointset/unrothum/unrothum_r3/value	/jointset/unrothum/unrothum_r3/speed	/jointset/unrothum/unrothum_r2/value	/jointset/unrothum/unrothum_r2/speed	/jointset/shoulder0/elv_angle/value	/jointset/shoulder0/elv_angle/speed	/jointset/shoulder1/shoulder_elv/value	/jointset/shoulder1/shoulder_elv/speed	/jointset/shoulder1/shoulder1_r2/value	/jointset/shoulder1/shoulder1_r2/speed	/jointset/shoulder2/shoulder_rot/value	/jointset/shoulder2/shoulder_rot/speed	/jointset/elbow/elbow_flexion/value	/jointset/elbow/elbow_flexion/speed	/jointset/radioulnar/pro_sup/value	/jointset/radioulnar/pro_sup/speed	/jointset/radiocarpal/deviation/value	/jointset/radiocarpal/deviation/speed	/jointset/radiocarpal/flexion/value	/jointset/radiocarpal/flexion/speed	/jointset/wrist_hand/wrist_hand_r1/value	/jointset/wrist_hand/wrist_hand_r1/speed	/jointset/wrist_hand/wrist_hand_r3/value	/jointset/wrist_hand/wrist_hand_r3/speed	/forceset/DELT1/activation	/forceset/DELT1/fiber_length	/forceset/DELT2/activation	/forceset/DELT2/fiber_length	/forceset/DELT3/activation	/forceset/DELT3/fiber_length	/forceset/SUPSP/activation	/forceset/SUPSP/fiber_length	/forceset/INFSP/activation	/forceset/INFSP/fiber_length	/forceset/SUBSC/activation	/forceset/SUBSC/fiber_length	/forceset/TMIN/activation	/forceset/TMIN/fiber_length	/forceset/TMAJ/activation	/forceset/TMAJ/fiber_length	/forceset/PECM1/activation	/forceset/PECM1/fiber_length	/forceset/PECM2/activation	/forceset/PECM2/fiber_length	/forceset/PECM3/activation	/forceset/PECM3/fiber_length	/forceset/LAT1/activation	/forceset/LAT1/fiber_length	/forceset/LAT2/activation	/forceset/LAT2/fiber_length	/forceset/LAT3/activation	/forceset/LAT3/fiber_length	/forceset/CORB/activation	/forceset/CORB/fiber_length	/forceset/TRIlong/activation	/forceset/TRIlong/fiber_length	/forceset/TRIlat/activation	/forceset/TRIlat/fiber_length	/forceset/TRImed/activation	/forceset/TRImed/fiber_length	/forceset/ANC/activation	/forceset/ANC/fiber_length	/forceset/SUP/activation	/forceset/SUP/fiber_length	/forceset/BIClong/activation	/forceset/BIClong/fiber_length	/forceset/BICshort/activation	/forceset/BICshort/fiber_length	/forceset/BRA/activation	/forceset/BRA/fiber_length	/forceset/BRD/activation	/forceset/BRD/fiber_length	/forceset/ECRL/activation	/forceset/ECRL/fiber_length	/forceset/ECRB/activation	/forceset/ECRB/fiber_length	/forceset/ECU/activation	/forceset/ECU/fiber_length	/forceset/FCR/activation	/forceset/FCR/fiber_length	/forceset/FCU/activation	/forceset/FCU/fiber_length	/forceset/PL/activation	/forceset/PL/fiber_length	/forceset/PT/activation	/forceset/PT/fiber_length	/forceset/PQ/activation	/forceset/PQ/fiber_length	/forceset/FDSL/activation	/forceset/FDSL/fiber_length	/forceset/FDSR/activation	/forceset/FDSR/fiber_length	/forceset/FDSM/activation	/forceset/FDSM/fiber_length	/forceset/FDSI/activation	/forceset/FDSI/fiber_length	/forceset/FDPL/activation	/forceset/FDPL/fiber_length	/forceset/FDPR/activation	/forceset/FDPR/fiber_length	/forceset/FDPM/activation	/forceset/FDPM/fiber_length	/forceset/FDPI/activation	/forceset/FDPI/fiber_length	/forceset/EDCL/activation	/forceset/EDCL/fiber_length	/forceset/EDCR/activation	/forceset/EDCR/fiber_length	/forceset/EDCM/activation	/forceset/EDCM/fiber_length	/forceset/EDCI/activation	/forceset/EDCI/fiber_length	/forceset/EDM/activation	/forceset/EDM/fiber_length	/forceset/EIP/activation	/forceset/EIP/fiber_length	/forceset/EPL/activation	/forceset/EPL/fiber_length	/forceset/EPB/activation	/forceset/EPB/fiber_length	/forceset/FPL/activation	/forceset/FPL/fiber_length	/forceset/APL/activation	/forceset/APL/fiber_length
      0.45639547	     10.00000028	      0.00000000	     -1.99440984	     -1.17814694	      0.84473788	      0.49900744	     -0.84473788	     -0.49900744	      1.99440984	      1.17814694	     -0.40382742	     -0.23855079	      3.26359119	      1.92788358	      1.46696178	      0.86657040	     -1.46696178	     -0.86657040	     -3.26359119	     -1.92788358	      0.40382742	      0.23855079	    -74.01111255	     20.24413405	      8.24134451	      4.86836489	     74.01111255	    -20.24413405	      1.82700630	     -8.92918497	     11.43008231	    -32.69460364	    -32.90851442	      6.33784207	      0.19104986	     -1.60773526	     -0.26288493	      1.50554177	     13.14399597	    -96.20544638	     -7.53109841	     43.13059476	      0.00000000	      0.12486205	      0.00000000	      0.12303664	      0.00000000	      0.11557728	      0.00000000	      0.07488806	      0.00000000	      0.08141557	      0.00000000	      0.08092594	      0.00000000	      0.06149238	      0.00000000	      0.11582454	      0.00000000	      0.12725051	      0.00000000	      0.10298191	      0.00000000	      0.07883061	      0.00000000	      0.16485298	      0.00000000	      0.12808657	      0.00000000	      0.19175431	      0.00000000	      0.06939609	      0.00000000	      0.13650766	      0.00000000	      0.07587563	      0.00000000	      0.07085821	      0.00000000	      0.00570572	      0.00000000	      0.03024530	      0.00000000	      0.15786882	      0.00000000	      0.15635713	      0.00000000	      0.09055195	      0.00000000	      0.19644883	      0.00000000	      0.09171703	      0.00000000	      0.06386224	      0.00000000	      0.05963158	      0.00000000	      0.07545466	      0.00000000	      0.04827005	      0.00000000	      0.07789242	      0.00000000	      0.06414283	      0.00000000	      0.03028055	      0.00000000	      0.05577384	      0.00000000	      0.07805153	      0.00000000	      0.07996148	      0.00000000	      0.09279421	      0.00000000	      0.07839565	      0.00000000	      0.08283561	      0.00000000	      0.08004482	      0.00000000	      0.08092489	      0.00000000	      0.07366668	      0.00000000	      0.06061651	      0.00000000	      0.11974528	      0.00000000	      0.06859731	      0.00000000	      0.07111857	      0.00000000	      0.06573579	      0.00000000	      0.06368838	      0.00000000	      0.07638196	      0.00000000	      0.06751464	      0.00000000	      0.08084600
      0.45722750	     10.00000028	      0.00000000	     -1.99539555	     -1.19122912	      0.84515538	      0.50454843	     -0.84515538	     -0.50454843	      1.99539555	      1.19122912	     -0.40402701	     -0.24119966	      3.26520418	      1.94929085	      1.46768681	      0.87619282	     -1.46768681	     -0.87619282	     -3.26520418	     -1.94929085	      0.40402701	      0.24119966	    -73.99426583	     20.25125368	      8.24541769	      4.92242333	     73.99426583	    -20.25125368	      1.81961102	     -8.84043330	     11.40296461	    -32.48828712	    -32.90343075	      5.86745852	      0.18972139	     -1.58544535	     -0.26162772	      1.51612942	     13.06441876	    -95.06918852	     -7.49508202	     43.43390835	      0.00000000	      0.12486205	      0.00000000	      0.12303664	      0.00000000	      0.11557728	      0.00000000	      0.07488806	      0.00000000	      0.08141557	      0.00000000	      0.08092594	      0.00000000	      0.06149238	      0.00000000	      0.11582454	      0.00000000	      0.12725969	      0.00000000	      0.10298625	      0.00000000	      0.07883061	      0.00000000	      0.16485298	      0.00000000	      0.12808657	      0.00000000	      0.19175431	      0.00000000	      0.06939609	      0.00000000	      0.13650766	      0.00000000	      0.07587563	      0.00000000	      0.07085821	      0.00000000	      0.00570572	      0.00000000	      0.03024530	      0.00000000	      0.15786882	      0.00000000	      0.15635713	      0.00000000	      0.09055195	      0.00000000	      0.19644883	      0.00000000	      0.09171703	      0.00000000	      0.06386224	      0.00000000	      0.05963158	      0.00000000	      0.07545466	      0.00000000	      0.04827969	      0.00000000	      0.07789242	      0.00000000	      0.06414283	      0.00000000	      0.03028055	      0.00000000	      0.05577384	      0.00000000	      0.07805153	      0.00000000	      0.07996148	      0.00000000	      0.09279421	      0.00000000	      0.07839565	      0.00000000	      0.08283561	      0.00000000	      0.08004482	      0.00000000	      0.08092489	      0.00000000	      0.07366668	      0.00000000	      0.06061651	      0.00000000	      0.11974528	      0.00000000	      0.06859731	      0.00000000	      0.07111857	      0.00000000	      0.06573579	      0.00000000	      0.06368838	      0.00000000	      0.07638196	      0.00000000	      0.06751464	      0.00000000	      0.08084600
      0.45805953	     10.00000028	      0.00000000	     -1.99639209	     -1.20416744	      0.84557746	      0.51002849	     -0.84557746	     -0.51002849	      1.99639209	      1.20416744	     -0.40422879	     -0.24381941	      3.26683487	      1.97046272	      1.46841979	      0.88570943	     -1.46841979	     -0.88570943	     -3.26683487	     -1.97046272	      0.40422879	      0.24381941	    -73.97741321	     20.25832569	      8.24953559	      4.97588735	     73.97741321	    -20.25832569	      1.81229544	     -8.74212201	     11.37602478	    -32.26600520	    -32.89874964	      5.38062950	      0.18841201	     -1.56175828	     -0.26036236	      1.52521748	     12.98582321	    -93.84062621	     -7.45883216	     43.69426227	      0.00000000	      0.12486205	      0.00000000	      0.12303664	      0.00000000	      0.11557728	      0.00000000	      0.07488806	      0.00000000	      0.08141557	      0.00000000	      0.08092594	      0.00000000	      0.06149238	      0.00000000	      0.11582454	      0.00000000	      0.12725969	      0.00000000	      0.10299060	      0.00000000	      0.07883061	      0.00000000	      0.16485298	      0.00000000	      0.12808657	      0.00000000	      0.19175431	      0.00000000	      0.06939609	      0.00000000	      0.13650766	      0.00000000	      0.07587563	      0.00000000	      0.07085821	      0.00000000	      0.00570572	      0.00000000	      0.03024530	      0.00000000	      0.15786882	      0.00000000	      0.15635713	      0.00000000	      0.09055195	      0.00000000	      0.19644883	      0.00000000	      0.09171703	      0.00000000	      0.06386224	      0.00000000	      0.05963158	      0.00000000	      0.07545466	      0.00000000	      0.04828892	      0.00000000	      0.07789242	      0.00000000	      0.06414283	      0.00000000	      0.03028055	      0.00000000	      0.05577384	      0.00000000	      0.07805153	      0.00000000	      0.07996148	      0.00000000	      0.09279421	      0.00000000	      0.07839565	      0.00000000	      0.08283561	      0.00000000	      0.08004482	      0.00000000	      0.08092489	      0.00000000	      0.07366668	      0.00000000	      0.06061651	      0.00000000	      0.11974528	      0.00000000	      0.06859731	      0.00000000	      0.07111857	      0.00000000	      0.06573579	      0.00000000	      0.06368838	      0.00000000	      0.07638196	      0.00000000	      0.06751464	      0.00000000	      0.08084600
      0.45873081	     10.00000028	      0.00000000	     -1.99720389	     -1.21449301	      0.84592130	      0.51440192	     -0.84592130	     -0.51440192	      1.99720389	      1.21449301	     -0.40439316	     -0.24591013	      3.26816328	      1.98735916	      1.46901690	      0.89330427	     -1.46901690	     -0.89330427	     -3.26816328	     -1.98735916	      0.40439316	      0.24591013	    -73.96381233	     20.26400037	      8.25289013	      5.01855489	     73.96381233	    -20.26400037	      1.80645652	     -8.65285965	     11.35442864	    -32.07569645	    -32.89527418	      4.97219057	      0.18737033	     -1.54167493	     -0.25933639	      1.53138582	     12.92318125	    -92.78451485	     -7.42944019	     43.87097217	      0.00000000	      0.12486205	      0.00000000	      0.12303664	      0.00000000	      0.11557728	      0.00000000	      0.07488806	      0.00000000	      0.08141557	      0.00000000	      0.08092594	      0.00000000	      0.06149238	      0.00000000	      0.11582454	      0.00000000	      0.12725969	      0.00000000	      0.10299413	      0.00000000	      0.07883061	      0.00000000	      0.16485298	      0.00000000	      0.12808657	      0.00000000	      0.19175431	      0.00000000	      0.06939609	      0.00000000	      0.13650766	      0.00000000	      0.07587563	      0.00000000	      0.07085821	      0.00000000	      0.00570572	      0.00000000	      0.03024530	      0.00000000	      0.15786882	      0.00000000	      0.15635713	      0.00000000	      0.09055195	      0.00000000	      0.19644883	      0.00000000	      0.09171703	      0.00000000	      0.06386224	      0.00000000	      0.05963158	      0.00000000	      0.07545466	      0.00000000	      0.04829606	      0.00000000	      0.07789242	      0.00000000	      0.06414283	      0.00000000	      0.03028055	      0.00000000	      0.05577384	      0.00000000	      0.07805153	      0.00000000	      0.07996148	      0.00000000	      0.09279421	      0.00000000	      0.07839565	      0.00000000	      0.08283561	      0.00000000	      0.08004482	      0.00000000	      0.08092489	      0.00000000	      0.07366668	      0.00000000	      0.06061651	      0.00000000	      0.11974528	      0.00000000	      0.06859731	      0.00000000	      0.07111857	      0.00000000	      0.06573579	      0.00000000	      0.06368838	      0.00000000	      0.07638196	      0.00000000	      0.06751464	      0.00000000	      0.08084600
